<svg width="48" height="48" viewBox="0 0 48 48" xmlns="http://www.w3.org/2000/svg">
  <!-- Icon-only version for app icon, favicon, etc -->
  <defs>
    <linearGradient id="iconGradient1" x1="0%" y1="0%" x2="100%" y2="100%">
      <stop offset="0%" style="stop-color:#6366F1;stop-opacity:1" />
      <stop offset="100%" style="stop-color:#8B5CF6;stop-opacity:1" />
    </linearGradient>
    <linearGradient id="iconGradient2" x1="0%" y1="0%" x2="100%" y2="100%">
      <stop offset="0%" style="stop-color:#8B5CF6;stop-opacity:1" />
      <stop offset="100%" style="stop-color:#EC4899;stop-opacity:1" />
    </linearGradient>
    <!-- Background gradient -->
    <linearGradient id="bgGradient" x1="0%" y1="0%" x2="100%" y2="100%">
      <stop offset="0%" style="stop-color:#F3F4F6;stop-opacity:1" />
      <stop offset="100%" style="stop-color:#E5E7EB;stop-opacity:1" />
    </linearGradient>
  </defs>
  
  <!-- Background circle -->
  <circle cx="24" cy="24" r="24" fill="url(#bgGradient)"/>
  
  <!-- K Symbol centered -->
  <g transform="translate(8, 8)">
    <!-- Left vertical line of K -->
    <rect x="0" y="4" width="6" height="24" rx="3" fill="url(#iconGradient1)"/>
    
    <!-- Upper diagonal of K -->
    <path d="M 6 16 L 20 2 Q 22 0 24 2 L 22 4 L 8 18 Q 6 20 4 18 Z" 
          fill="url(#iconGradient1)"/>
    
    <!-- Lower diagonal of K -->
    <path d="M 6 16 L 20 30 Q 22 32 24 30 L 22 28 L 8 14 Q 6 12 4 14 Z" 
          fill="url(#iconGradient2)"/>
    
    <!-- Circular accent -->
    <circle cx="24" cy="16" r="8" fill="none" stroke="url(#iconGradient2)" 
            stroke-width="2.5" opacity="0.8"/>
    <circle cx="24" cy="16" r="4" fill="url(#iconGradient2)" opacity="0.6"/>
  </g>
</svg>